ply
format ascii 1.0
element Vertices 48
property list uchar float coordinates
property float thickness
element Edges 47
property int vertex1
property int vertex2
end_header
2 16 14 10.6400003433227539
2 23.3299999237060547 10.6700000762939453 3.04999995231628418
2 23 10.8000001907348633 3.50999999046325684
2 19 12.5 8.72000026702880859
2 21.5 11.5 5.67999982833862305
2 22.8299999237060547 10.8299999237060547 3.73000001907348633
2 24 10 2.02999997138977051
2 14.619999885559082 17 13.4899997711181641
2 7.5 28 1.79999995231628418
2 14.5 18 14.619999885559082
2 14.5 19 15.2299995422363281
2 17 13.25 10.130000114440918
2 18 12.75 9.5
2 12.5 12.5 8.43000030517578125
2 14.880000114440918 16 12.2100000381469727
2 7.5 8 2.26999998092651367
2 8 10.5 4.42000007629394531
2 10 12 5.88000011444091797
2 15 15.6700000762939453 11.75
2 15 15 11.0600004196166992
2 14.5 22 12.2299995422363281
2 14.5 20 14.2299995422363281
2 14.5 21 13.2299995422363281
2 11 12 6.88000011444091797
2 11.9499998092651367 12.1400003433227539 7.71999979019165039
2 7.5 9 3.26999998092651367
2 7.75 10 4.05000019073486328
2 9 27.5 3.53999996185302734
2 20.6700000762939453 12.3299999237060547 6.92000007629394531
2 20 12.5 7.71999979019165039
2 10.6700000762939453 26.6700000762939453 5.59999990463256836
2 8 27.5 2.53999996185302734
2 7.67000007629394531 27.6700000762939453 2.1099998950958252
2 24 25.5 2.22000002861022949
2 23 25.5 3.22000002861022949
2 22 25.5 4.21999979019165039
2 14 24 7.55999994277954102
2 10 27.5 4.53999996185302734
2 10.3299999237060547 27.3299999237060547 4.84999990463256836
2 14.5 23.6200008392333984 10.6400003433227539
2 14.5 23 11.2299995422363281
2 16.25 25.5 9.02000045776367188
2 15.880000114440918 25.3500003814697266 9.22000026702880859
2 12 26 6.69000005722045898
2 13 25 7.13000011444091797
2 21 25.5 5.21999979019165039
2 19 25.5 7.21999979019165039
2 20 25.5 6.21999979019165039
1 2
1 6
2 5
4 5
11 12
0 11
3 12
7 14
9 10
7 9
14 18
0 19
13 19
21 22
10 21
20 22
23 24
17 23
13 24
18 19
16 17
15 25
16 26
25 26
28 29
3 29
4 28
31 32
27 31
8 32
34 35
33 34
37 38
27 37
30 38
39 40
36 39
20 40
30 43
43 44
36 44
35 45
41 42
46 47
41 46
39 42
45 47
